# xmcd
#
# Track frame offsets:
#   150
#   15975
#   37950
#   59625
#   78225
#   97200
#   118650
#   137550
#   154950
#   173325
#   193125
#   210525
#   228075
#   247575
#   267525
#   289875
#
# Disc length: 4123 seconds
#
# Revision: 0
# Processed by: cddbd v1.5.1PL2 Copyright (c) Steve Scherf et al.
# Submitted via: GXTranscoder 2.0.1939
#
DISCID=d5101910
DTITLE=Mariah Carey - Best Collection
DYEAR=1900
DGENRE=R and B
TTITLE0=Vision Of Love
TTITLE1=There's Got to be a Way
TTITLE2=I don't wanna cry
TTITLE3=Someday
TTITLE4=Vanishing
TTITLE5=All In Your Mind
TTITLE6=Alone In Love
TTITLE7=You Need Me
TTITLE8=Sent From Up Above
TTITLE9=Prisoner
TTITLE10=Love Takes Time
TTITLE11=Dreamlover
TTITLE12=Hero
TTITLE13=Any Time You Need A Friend
TTITLE14=Music Box
TTITLE15=Now That I Know
EXTD=
EXTT0=
EXTT1=
EXTT2=
EXTT3=
EXTT4=
EXTT5=
EXTT6=
EXTT7=
EXTT8=
EXTT9=
EXTT10=
EXTT11=
EXTT12=
EXTT13=
EXTT14=
EXTT15=
PLAYORDER=
